Coordinates
version=1
nRows=11
nColumns=36
inDegrees=yes

Units are S.I. units (second, meters, Newtons, ...)
If the header above contains a line with 'inDegrees', this indicates whether rotational values are in degrees (yes) or radians (no).

endheader
time	pelvis_tilt	pelvis_list	pelvis_rotation	pelvis_tx	pelvis_ty	pelvis_tz	hip_flexion_r	hip_adduction_r	hip_rotation_r	knee_angle_r	knee_angle_r_beta	ankle_angle_r	subtalar_angle_r	mtp_angle_r	hip_flexion_l	hip_adduction_l	hip_rotation_l	knee_angle_l	knee_angle_l_beta	ankle_angle_l	subtalar_angle_l	mtp_angle_l	lumbar_extension	lumbar_bending	lumbar_rotation	arm_flex_r	arm_add_r	arm_rot_r	elbow_flex_r	pro_sup_r	arm_flex_l	arm_add_l	arm_rot_l	elbow_flex_l	pro_sup_l
      0.00000000	      2.36985035	      1.01592154	     -0.26768594	     -0.93516416	      1.24970183	     -0.03913400	     -0.83231712	      0.97995227	      2.09632128	     11.98525915	      0.20918223	     10.64141155	    -14.57158363	     -5.24543939	     -1.08457840	     -2.53431151	      2.79352284	     11.55137717	      0.20160956	     11.73649173	     -3.29585624	     -5.24543939	    -10.59357474	      2.41068131	     -2.07688437	      4.57772583	    -10.53424709	     17.39040809	     23.24241714	     71.96889247	      4.68343100	     -7.84759436	     18.70599676	     22.73790319	     66.60451308
      0.00416670	      2.23456709	      1.12790456	     -0.51959643	     -0.94094226	      1.25025228	     -0.04303214	      0.35265429	      0.89000701	      3.19961917	     13.36368466	      0.23324030	     13.21394440	    -15.09015012	     -5.48018525	     -0.19117755	     -1.73582226	      3.95474759	     12.27747301	      0.21428233	     11.43330760	     -3.16688283	     -5.48018525	    -10.77912158	      2.97227735	     -2.28343421	      5.12027658	    -10.14281134	     15.57986974	     23.36682334	     70.69399821	      5.08085623	     -6.90869531	     16.82380984	     22.84587359	     65.85707777
      0.00833330	      1.86555154	      1.39715528	     -0.55168953	     -0.93492923	      1.24637501	     -0.03871144	      0.23684117	      0.67739675	      2.80475335	     12.77197187	      0.22291296	     13.29649464	    -15.04447693	     -6.05669333	      0.17514772	     -1.64655472	      3.92635493	     12.51324804	      0.21839738	     11.70005786	     -2.99042462	     -6.05669333	    -10.28680575	      2.43201811	     -2.05860966	      4.30855534	     -8.70757636	      7.38380464	     24.65848110	     73.29062515	      4.81776982	     -6.45244647	     10.29798247	     23.62559397	     69.08758477
      0.01250000	      2.27287540	      1.69071625	     -0.73030052	     -0.94172053	      1.24821224	     -0.04180739	      0.25458593	      0.27084744	      2.84691838	     13.43692669	      0.23451861	     13.80915450	    -15.26141553	     -6.06660750	     -0.04886355	     -1.25232123	      3.97451628	     12.98756870	      0.22667584	     11.82439326	     -3.64890031	     -6.06660750	    -11.32661845	      1.99410798	     -1.88332428	      4.89415662	     -8.50747126	      7.24950345	     24.80792469	     73.38136224	      5.52266006	     -6.72239003	     10.10880997	     23.72457513	     69.16198539
      0.01666670	      3.23875648	      1.67952374	     -0.55819090	     -0.94253544	      1.24999427	     -0.04282523	     -0.87318673	      0.16743694	      2.48983256	     13.19442463	      0.23028615	     14.04115981	    -14.88063886	     -6.17718268	     -1.17301849	     -1.12366072	      4.89341783	     12.54024432	      0.21886855	     11.40634423	     -4.89309624	     -6.17718268	    -13.02886769	      2.16013292	     -1.84865902	      5.21298126	     -8.55888667	      6.29437962	     25.67483427	     73.45942009	      6.25027837	     -6.61214261	      9.39903817	     24.48791268	     69.50694341
      0.02083330	      3.35861028	      1.68891579	     -0.51973832	     -0.94248416	      1.25058789	     -0.04217928	     -0.90997489	      0.16687125	      2.65948825	     13.29802202	      0.23209427	     14.08113565	    -15.12485372	     -6.21648346	     -1.09919952	     -1.05417544	      5.09665451	     12.69975646	      0.22165256	     11.65096481	     -5.08605478	     -6.21648346	    -13.43037898	      2.20701223	     -1.70850889	      5.35948208	     -8.45003783	      6.38905823	     25.59198206	     73.20502625	      6.73733582	     -6.44824383	      9.21871847	     24.57568367	     69.37874762
      0.02500000	      3.51850457	      1.65241631	     -0.45004565	     -0.94334717	      1.24761531	     -0.04316432	     -0.90829503	      0.16274547	      2.46439637	     13.65674645	      0.23835519	     14.43075319	    -14.81252960	     -6.52097149	     -0.97229035	     -1.01316978	      5.40272585	     12.99094757	      0.22673481	     11.96098753	     -5.26506713	     -6.52097149	    -13.88709961	      2.31331508	     -2.02969993	      5.62198093	     -8.58717444	      7.61653500	     25.65097209	     76.11484886	      6.76782602	     -6.36503454	      8.02805602	     25.30126847	     73.09144055
      0.02916670	      3.45727830	      1.65499616	     -0.44463287	     -0.94294374	      1.25208777	     -0.04262191	     -0.82076309	      0.14590522	      2.49635700	     13.64047578	      0.23807121	     14.38920141	    -14.80652167	     -6.52239575	     -0.98325039	     -1.05516955	      5.45497335	     12.84552259	      0.22419666	     12.01910917	     -5.24880851	     -6.52239575	    -13.88277228	      2.34006020	     -2.09161275	      5.59964202	     -8.45785109	      7.65041787	     25.67309669	     76.12936021	      6.93853744	     -6.27962580	      8.03437842	     25.38624447	     73.11040095
      0.03333330	      3.50183866	      1.68996728	     -0.33491300	     -0.94309188	      1.25230297	     -0.04301214	     -1.02086573	      0.11245711	      2.51878607	     13.33808594	      0.23279352	     14.08372627	    -15.11339971	     -6.57246723	     -0.98002747	     -1.00700668	      5.73002552	     12.85563512	      0.22437316	     11.88249108	     -5.52542219	     -6.57246723	    -14.03968139	      2.29083641	     -2.16983857	      5.64390351	     -8.39266436	      8.19260022	     25.92888237	     75.95074881	      7.04984200	     -6.26048709	      8.12812632	     25.47167891	     73.06189931
      0.03750000	      3.62659352	      1.69867767	     -0.24962111	     -0.94288346	      1.25264303	     -0.04279544	     -1.30667478	      0.09312281	      2.32734505	     13.01157524	      0.22709483	     14.12208219	    -14.88460235	     -6.68242162	     -0.93943475	     -1.04127422	      5.78084859	     13.03743801	      0.22754622	     11.75954342	     -5.99273815	     -6.68242162	    -14.27941355	      2.26627642	     -2.46101322	      5.79343697	     -8.49169603	      9.70963577	     26.28111008	     75.73989328	      7.16216444	     -6.59370394	      8.68733760	     25.73026069	     73.19628976
      0.04166670	      3.60333265	      1.74849774	     -0.06225474	     -0.94323885	      1.25566252	     -0.04390570	     -1.50993084	      0.02458439	      2.22836676	     12.56163338	      0.21924186	     13.71983150	    -15.11035740	     -6.90443107	     -0.85866116	     -0.96783708	      6.01153056	     13.04575102	      0.22769131	     11.24928082	     -6.38591727	     -6.90443107	    -14.30872727	      2.26734851	     -2.73197361	      5.90124474	     -8.50024135	     10.52804450	     26.49905340	     73.33940500	      7.22508690	     -6.62852429	      9.08297412	     25.62571622	     71.43099940
